subject01_states
version=1
nRows=8
nColumns=61
inDegrees=yes

# SIMM Motion File Header:
name subject01_states
datacolumns 61
datarows 8
otherdata 1
range 1.91163369 1.92355477
endheader
time	/jointset/ground_pelvis/pelvis_list/value	/jointset/ground_pelvis/pelvis_list/speed	/jointset/ground_pelvis/pelvis_rotation/value	/jointset/ground_pelvis/pelvis_rotation/speed	/jointset/ground_pelvis/pelvis_tilt/value	/jointset/ground_pelvis/pelvis_tilt/speed	/jointset/ground_pelvis/pelvis_tx/value	/jointset/ground_pelvis/pelvis_tx/speed	/jointset/ground_pelvis/pelvis_ty/value	/jointset/ground_pelvis/pelvis_ty/speed	/jointset/ground_pelvis/pelvis_tz/value	/jointset/ground_pelvis/pelvis_tz/speed	/jointset/hip_r/hip_adduction_r/value	/jointset/hip_r/hip_adduction_r/speed	/jointset/hip_r/hip_rotation_r/value	/jointset/hip_r/hip_rotation_r/speed	/jointset/hip_r/hip_flexion_r/value	/jointset/hip_r/hip_flexion_r/speed	/jointset/hip_l/hip_adduction_l/value	/jointset/hip_l/hip_adduction_l/speed	/jointset/hip_l/hip_rotation_l/value	/jointset/hip_l/hip_rotation_l/speed	/jointset/hip_l/hip_flexion_l/value	/jointset/hip_l/hip_flexion_l/speed	/jointset/knee_r/knee_flexion_r/value	/jointset/knee_r/knee_flexion_r/speed	/jointset/knee_l/knee_flexion_l/value	/jointset/knee_l/knee_flexion_l/speed	/jointset/ankle_r/ankle_dorsiflexion_r/value	/jointset/ankle_r/ankle_dorsiflexion_r/speed	/jointset/ankle_l/ankle_dorsiflexion_l/value	/jointset/ankle_l/ankle_dorsiflexion_l/speed	/forceset/hamstrings_r/activation	/forceset/hamstrings_r/fiber_length	/forceset/glut_max_r/activation	/forceset/glut_max_r/fiber_length	/forceset/ilipsoas_r/activation	/forceset/ilipsoas_r/fiber_length	/forceset/vasti_r/activation	/forceset/vasti_r/fiber_length	/forceset/gastroc_r/activation	/forceset/gastroc_r/fiber_length	/forceset/soleus_r/activation	/forceset/soleus_r/fiber_length	/forceset/tibia_r/activation	/forceset/tibia_r/fiber_length	/forceset/hamstrings_l/activation	/forceset/hamstrings_l/fiber_length	/forceset/glut_max_l/activation	/forceset/glut_max_l/fiber_length	/forceset/ilipsoas_l/activation	/forceset/ilipsoas_l/fiber_length	/forceset/vasti_l/activation	/forceset/vasti_l/fiber_length	/forceset/gastroc_l/activation	/forceset/gastroc_l/fiber_length	/forceset/soleus_l/activation	/forceset/soleus_l/fiber_length	/forceset/tibia_l/activation	/forceset/tibia_l/fiber_length
      1.91163369	      0.00000000	      0.00000000	     -0.00000000	     -0.00000000	    228.27765103	   -657.20725332	      1.38659598	      0.39006337	     -0.72675841	      1.20829579	     -0.00000000	     -0.00000000	      0.30681968	   -369.58432734	     23.45488242	    -96.37081413	     13.71429720	    875.17854386	     -0.30681968	    369.58432734	    -23.45488242	     96.37081413	     13.71429720	    875.17854386	   -416.48828127	     16.24071817	   -416.48828127	     16.24071817	     -5.60428567	    -43.04164781	     -5.60428567	    -43.04164781	     -0.22068067	      0.10975419	     -0.22068067	      0.11263129	     -0.22068067	      0.11286075	     -0.22068067	      0.10905718	     -0.22068067	      0.03711879	     -0.22068067	      0.04148333	     -0.22068067	      0.09654987	     -0.22068067	      0.10975419	     -0.22068067	      0.11263129	     -0.22068067	      0.11286075	     -0.22068067	      0.10905718	     -0.22068067	      0.03711879	     -0.22068067	      0.04148333	     -0.22068067	      0.09654987
      1.91353097	      0.00000000	      0.00000000	     -0.00000000	     -0.00000000	    227.03227428	   -655.57942020	      1.38737959	      0.43580780	     -0.72450695	      1.16472870	     -0.00000000	     -0.00000000	     -0.38712360	   -361.80922329	     23.26142922	   -107.46098493	     15.36151426	    861.09817568	      0.38712360	    361.80922329	    -23.26142922	    107.46098493	     15.36151426	    861.09817568	   -416.43799926	     36.76510387	   -416.43799926	     36.76510387	     -5.70099250	    -59.04318546	     -5.70099250	    -59.04318546	     -0.22092494	      0.10959587	     -0.22092494	      0.11380950	     -0.22092494	      0.11258965	     -0.22092494	      0.10904778	     -0.22092494	      0.03709156	     -0.22092494	      0.04146969	     -0.22092494	      0.09641965	     -0.22092494	      0.10959587	     -0.22092494	      0.11380950	     -0.22092494	      0.11258965	     -0.22092494	      0.10904778	     -0.22092494	      0.03709156	     -0.22092494	      0.04146969	     -0.22092494	      0.09641965
      1.91542824	      0.00000000	      0.00000000	     -0.00000000	     -0.00000000	    225.79008754	   -653.84512847	      1.38824899	      0.48047617	     -0.72234003	      1.11919769	     -0.00000000	     -0.00000000	     -1.06564171	   -353.33420919	     23.04749522	   -117.95167405	     16.98131879	    846.28898570	      1.06564171	    353.33420919	    -23.04749522	    117.95167405	     16.98131879	    846.28898570	   -416.34876743	     57.30133597	   -416.34876743	     57.30133597	     -5.82892414	    -76.00144825	     -5.82892414	    -76.00144825	     -0.22116922	      0.10943769	     -0.22116922	      0.11495701	     -0.22116922	      0.11232711	     -0.22116922	      0.10901449	     -0.22116922	      0.03705995	     -0.22116922	      0.04144087	     -0.22116922	      0.09628944	     -0.22116922	      0.10943769	     -0.22116922	      0.11495701	     -0.22116922	      0.11232711	     -0.22116922	      0.10901449	     -0.22116922	      0.03705995	     -0.22116922	      0.04144087	     -0.22116922	      0.09628944
      1.91732552	      0.00000000	      0.00000000	     -0.00000000	     -0.00000000	    224.55128905	   -652.00852438	      1.38920208	      0.52402048	     -0.72026130	      1.07176944	     -0.00000000	     -0.00000000	     -1.72746868	   -344.22682016	     22.81426933	   -127.78783250	     18.57237236	    830.79979157	      1.72746868	    344.22682016	    -22.81426933	    127.78783250	     18.57237236	    830.79979157	   -416.22054931	     77.86589718	   -416.22054931	     77.86589718	     -5.99023351	    -94.32547034	     -5.99023351	    -94.32547034	     -0.22141349	      0.10927965	     -0.22141349	      0.11607334	     -0.22141349	      0.11207282	     -0.22141349	      0.10895696	     -0.22141349	      0.03702377	     -0.22141349	      0.04139758	     -0.22141349	      0.09615923	     -0.22141349	      0.10927965	     -0.22141349	      0.11607334	     -0.22141349	      0.11207282	     -0.22141349	      0.10895696	     -0.22141349	      0.03702377	     -0.22141349	      0.04139758	     -0.22141349	      0.09615923
      1.91922280	      0.00000000	     -0.00000000	     -0.00000000	     -0.00000000	    223.31606761	   -650.07562761	      1.39023669	      0.56641450	     -0.71827429	      1.02251913	     -0.00000000	     -0.00000000	     -2.37148198	   -334.57238709	     22.56305124	   -136.90633725	     20.13344322	    814.69551002	      2.37148198	    334.57238709	    -22.56305124	    136.90633725	     20.13344322	    814.69551002	   -416.05326611	     98.48754443	   -416.05326611	     98.48754443	     -6.18821535	   -114.84166841	     -6.18821535	   -114.84166841	     -0.22165777	      0.10912175	     -0.22165777	      0.11715816	     -0.22165777	      0.11182646	     -0.22165777	      0.10887495	     -0.22165777	      0.03698317	     -0.22165777	      0.04134277	     -0.22165777	      0.09602902	     -0.22165777	      0.10912175	     -0.22165777	      0.11715816	     -0.22165777	      0.11182646	     -0.22165777	      0.10887495	     -0.22165777	      0.03698317	     -0.22165777	      0.04134277	     -0.22165777	      0.09602902
      1.92066679	      0.00000000	     -0.00000000	     -0.00000000	     -0.00000000	    222.37846285	   -648.54540968	      1.39107740	      0.59790947	     -0.71682557	      0.98386900	     -0.00000000	     -0.00000000	     -2.84910875	   -326.92769268	     22.36067362	   -143.31627151	     21.30078234	    802.07957039	      2.84910875	    326.92769268	    -22.36067362	    143.31627151	     21.30078234	    802.07957039	   -415.89968138	    114.24608142	   -415.89968138	    114.24608142	     -6.36666623	   -132.69526170	     -6.36666623	   -132.69526170	     -0.22184368	      0.10900167	     -0.22184368	      0.11796248	     -0.22184368	      0.11164410	     -0.22184368	      0.10879602	     -0.22184368	      0.03694972	     -0.22184368	      0.04129700	     -0.22184368	      0.09592992	     -0.22184368	      0.10900167	     -0.22184368	      0.11796248	     -0.22184368	      0.11164410	     -0.22184368	      0.10879602	     -0.22184368	      0.03694972	     -0.22184368	      0.04129700	     -0.22184368	      0.09592992
      1.92211078	      0.00000000	     -0.00000000	     -0.00000000	     -0.00000000	    221.44310162	   -646.96887750	      1.39196312	      0.62873977	     -0.71543336	      0.94426051	     -0.00000000	     -0.00000000	     -3.31555438	   -319.09779012	     22.14939939	   -149.22131446	     22.44970827	    789.19860137	      3.31555438	    319.09779012	    -22.14939939	    149.22131446	     22.44970827	    789.19860137	   -415.72329073	    130.07596621	   -415.72329073	    130.07596621	     -6.57253368	   -152.78368679	     -6.57253368	   -152.78368679	     -0.22202959	      0.10888168	     -0.22202959	      0.11874846	     -0.22202959	      0.11146607	     -0.22202959	      0.10870280	     -0.22202959	      0.03691473	     -0.22202959	      0.04125066	     -0.22202959	      0.09583082	     -0.22202959	      0.10888168	     -0.22202959	      0.11874846	     -0.22202959	      0.11146607	     -0.22202959	      0.10870280	     -0.22202959	      0.03691473	     -0.22202959	      0.04125066	     -0.22202959	      0.09583082
      1.92355477	      0.00000000	     -0.00000000	     -0.00000000	     -0.00000000	    220.51004827	   -645.34937359	      1.39289287	      0.65889125	     -0.71409900	      0.90374177	     -0.00000000	     -0.00000000	     -3.77060414	   -311.15641369	     21.92998769	   -154.58116607	     23.57986327	    776.08606316	      3.77060414	    311.15641369	    -21.92998769	    154.58116607	     23.57986327	    776.08606316	   -415.52398967	    145.97781598	   -415.52398967	    145.97781598	     -6.80871161	   -174.54764860	     -6.80871161	   -174.54764860	     -0.22221551	      0.10876176	     -0.22221551	      0.11951607	     -0.22221551	      0.11129222	     -0.22221551	      0.10859533	     -0.22221551	      0.03687900	     -0.22221551	      0.04120433	     -0.22221551	      0.09573172	     -0.22221551	      0.10876176	     -0.22221551	      0.11951607	     -0.22221551	      0.11129222	     -0.22221551	      0.10859533	     -0.22221551	      0.03687900	     -0.22221551	      0.04120433	     -0.22221551	      0.09573172
